<svg width="34" height="34" viewBox="0 0 34 34" fill="none" xmlns="http://www.w3.org/2000/svg">
<path d="M29.0972 3.05081H26.1536V1.51505C26.1536 0.949635 25.6953 0.491211 25.1298 0.491211C24.5643 0.491211 24.1059 0.949635 24.1059 1.51505V3.05081H9.77218V1.51505C9.77218 0.949635 9.31382 0.491211 8.74834 0.491211C8.18286 0.491211 7.7245 0.949635 7.7245 1.51505V3.05081H4.78096C2.45217 3.05081 0.557617 4.94536 0.557617 7.27415V29.0307C0.557617 31.3595 2.45217 33.2541 4.78096 33.2541H29.0972C31.4259 33.2541 33.3205 31.3595 33.3205 29.0307V7.27415C33.3205 4.94536 31.4259 3.05081 29.0972 3.05081ZM4.78096 5.09849H7.7245V6.12233C7.7245 6.68775 8.18286 7.14617 8.74834 7.14617C9.31382 7.14617 9.77218 6.68775 9.77218 6.12233V5.09849H24.1059V6.12233C24.1059 6.68775 24.5643 7.14617 25.1298 7.14617C25.6953 7.14617 26.1536 6.68775 26.1536 6.12233V5.09849H29.0972C30.2968 5.09849 31.2728 6.07447 31.2728 7.27415V9.70577H2.6053V7.27415C2.6053 6.07447 3.58127 5.09849 4.78096 5.09849ZM29.0972 31.2064H4.78096C3.58127 31.2064 2.6053 30.2304 2.6053 29.0307V11.7534H31.2728V29.0307C31.2728 30.2304 30.2968 31.2064 29.0972 31.2064Z" fill="#007E31"/>
</svg>
