<svg width="17" height="16" viewBox="0 0 17 16" fill="none" xmlns="http://www.w3.org/2000/svg">
<path d="M12.3117 13.1846L9.68032 11.4303C9.56261 11.3526 9.40496 11.3782 9.31786 11.4891L8.55168 12.4742C8.30336 12.7978 7.85522 12.8902 7.49919 12.6911L7.35754 12.6133C6.84648 12.3345 6.21024 11.9876 4.94724 10.7246C3.68424 9.46164 3.33712 8.8254 3.05858 8.31407L2.98051 8.17242C2.78147 7.81648 2.87384 7.36839 3.19742 7.1202L4.18219 6.35374C4.29325 6.26671 4.31887 6.10899 4.24101 5.99128L2.48702 3.35962C2.40724 3.2402 2.24785 3.20428 2.12456 3.27793L1.02355 3.93814C0.787333 4.076 0.613605 4.29989 0.53871 4.56294C0.177104 5.87976 0.481288 8.1855 3.98339 11.6879C7.4855 15.1903 9.79072 15.4951 11.1086 15.1331C11.3717 15.0582 11.5956 14.8843 11.7334 14.648L12.3934 13.547C12.4672 13.4238 12.4313 13.2643 12.3117 13.1846Z" fill="white"/>
<path d="M15.9889 0.519508C15.9601 0.49066 15.9208 0.47465 15.88 0.475107H4.1979C4.1571 0.47465 4.11783 0.49066 4.08898 0.519508C4.06013 0.548356 4.04412 0.587633 4.04458 0.628435V4.68734L4.70701 5.68101C4.94594 6.04201 4.86742 6.52596 4.52664 6.79291L3.54273 7.55937C3.4374 7.63926 3.40678 7.78442 3.47079 7.90008L3.55108 8.04646C3.80708 8.53334 4.11935 8.9885 4.48147 9.40259H15.88C15.9636 9.4032 16.0321 9.33623 16.0334 9.25259V0.628435C16.0338 0.587633 16.0178 0.548356 15.9889 0.519508ZM8.0675 5.59011V5.58871L5.2114 8.64864C5.10637 8.76128 4.92993 8.76744 4.81731 8.66245C4.70467 8.55743 4.69851 8.38098 4.8035 8.26837L7.6596 5.20984C7.76463 5.09719 7.94107 5.09103 8.05369 5.19602C8.16633 5.30105 8.17252 5.47749 8.0675 5.59011ZM10.039 5.37042C9.83802 5.37134 9.64225 5.30675 9.48133 5.18642L4.82134 1.65278C4.69863 1.55932 4.6749 1.38406 4.76837 1.26132C4.86184 1.13861 5.03709 1.11489 5.15983 1.20835L9.8179 4.74199C9.94973 4.83777 10.1282 4.83777 10.2601 4.74199L14.9195 1.20835C15.0422 1.11528 15.2172 1.13931 15.3103 1.26202C15.4034 1.38473 15.3793 1.55968 15.2566 1.65278L10.5966 5.18642C10.4357 5.30675 10.2399 5.37134 10.039 5.37042ZM15.2783 8.66233C15.2243 8.71283 15.1523 8.73976 15.0784 8.73719C15.0044 8.73463 14.9345 8.7028 14.8841 8.64867L12.0283 5.58874C11.9312 5.47502 11.9412 5.30501 12.0508 5.20337C12.1603 5.1017 12.3306 5.10457 12.4367 5.20984L15.292 8.26837C15.397 8.38092 15.3909 8.55727 15.2783 8.66233Z" fill="white"/>
</svg>
