<svg width="20" height="20" viewBox="0 0 20 20" fill="none" xmlns="http://www.w3.org/2000/svg">
<path d="M16.7355 13.559H19.3473C19.7063 13.559 20.0002 13.2666 20.0002 12.906V1.15285C20.0002 0.792501 19.7076 0.5 19.3473 0.5H16.7355C16.3751 0.5 16.0825 0.79254 16.0825 1.15285V12.906C16.0825 13.2666 16.3764 13.559 16.7355 13.559Z" fill="#828282"/>
<path d="M1.63023 13.5589C1.73538 13.5767 6.6591 13.5589 6.6591 13.5589L5.97137 15.4352C5.49684 16.7311 5.80406 18.7097 7.12075 19.4131C7.54946 19.6422 8.14844 19.7572 8.63137 19.6357C8.90833 19.566 9.15173 19.3826 9.2968 19.137C9.46364 18.8544 9.44641 18.5246 9.50583 18.2113C9.65649 17.4167 10.032 16.6612 10.6134 16.0941C11.6272 15.1054 14.7763 12.2531 14.7763 12.2531V1.80579H3.89379C2.42534 1.80493 1.463 3.44477 2.18726 4.72568C1.32394 5.27861 1.02866 6.44326 1.53429 7.33748C0.670929 7.89041 0.375694 9.05506 0.88132 9.94928C-0.608292 10.9033 -0.110283 13.2646 1.63023 13.5589Z" fill="#828282"/>
</svg>
