<svg width="19" height="19" viewBox="0 0 19 19" fill="none" xmlns="http://www.w3.org/2000/svg">
<g clip-path="url(#clip0)">
<path d="M9.6802 12.5C9.52645 12.5 9.37945 12.437 9.2737 12.326L5.3362 8.201C4.99495 7.844 5.24845 7.25 5.7427 7.25H7.8052V2.9375C7.8052 2.42075 8.22595 2 8.7427 2H10.6177C11.1344 2 11.5552 2.42075 11.5552 2.9375V7.25H13.6177C14.1119 7.25 14.3654 7.844 14.0242 8.201L10.0867 12.326C9.98095 12.437 9.83395 12.5 9.6802 12.5Z" fill="#009136"/>
<path d="M17.3672 17H1.99219C1.26844 17 0.679688 16.4113 0.679688 15.6875V15.3125C0.679688 14.5888 1.26844 14 1.99219 14H17.3672C18.0909 14 18.6797 14.5888 18.6797 15.3125V15.6875C18.6797 16.4113 18.0909 17 17.3672 17Z" fill="#009136"/>
</g>
<defs>
<clipPath id="clip0">
<rect width="18" height="18" fill="white" transform="translate(0.679688 0.5)"/>
</clipPath>
</defs>
</svg>
