<svg width="45" height="31" viewBox="0 0 45 31" fill="none" xmlns="http://www.w3.org/2000/svg">
<path d="M0.273682 5.08887C0.273682 2.32744 2.51226 0.0888672 5.27368 0.0888672H39.2737C42.0351 0.0888672 44.2737 2.32744 44.2737 5.08887V25.0889C44.2737 27.8503 42.0351 30.0889 39.2737 30.0889H5.27368C2.51226 30.0889 0.273682 27.8503 0.273682 25.0889V5.08887Z" fill="#3B5998"/>
<path d="M24.1045 12.3978V9.75385C24.1045 9.02412 24.6967 8.43188 25.4264 8.43188H26.7484V5.12695H24.1045C21.914 5.12695 20.1386 6.90236 20.1386 9.09286V12.3978H17.4946V15.7027H20.1386V26.2785H24.1045V15.7027H26.7484L28.0704 12.3978H24.1045Z" fill="white"/>
</svg>
