<svg width="59" height="59" viewBox="0 0 59 59" fill="none" xmlns="http://www.w3.org/2000/svg">
<path d="M30.4951 50.4252C41.0527 50.4252 49.6113 41.8666 49.6113 31.3091C49.6113 20.7515 41.0527 12.1929 30.4951 12.1929C19.9375 12.1929 11.3789 20.7515 11.3789 31.3091C11.3789 41.8666 19.9375 50.4252 30.4951 50.4252Z" fill="#009136"/>
<path d="M29.2356 41.3699C26.4211 41.3699 24.5364 40.9431 23.0649 38.8986C21.9812 37.4056 21.4141 35.4234 21.4141 31.5702C21.4141 28.2081 21.6986 25.6763 22.9889 23.8656C24.6436 21.5092 27.2729 21.248 29.3135 21.248H36.9577V26.2551H32.1279C30.2198 26.2551 28.797 26.222 27.9979 27.8339C27.4814 28.8396 27.4015 30.4806 27.4015 31.4552C27.4015 33.6946 27.6841 34.445 27.842 34.79C28.6158 36.3726 30.2958 36.3726 32.2312 36.3726H37.2383V41.3699H29.2356Z" fill="#1A1A1D"/>
</svg>
