<svg width="149" height="48" viewBox="0 0 149 48" fill="none" xmlns="http://www.w3.org/2000/svg">
<g clip-path="url(#clip0)">
<path d="M29.5704 38.858V29.6918H20.3308C16.7621 29.6918 13.6639 29.6918 12.24 26.7952C11.9528 26.1841 11.4273 24.797 11.4273 20.6844C11.4273 18.9 11.574 15.8996 12.5272 14.0602C14 11.1148 16.6215 11.1759 20.1413 11.1759H29.0509V2.00968H14.9471C11.189 2.00968 6.33697 2.48633 3.28766 6.79447C0.904438 10.1065 0.378906 14.7386 0.378906 20.8494C0.378906 27.8952 1.42386 31.5189 3.43432 34.2443C6.14753 37.9842 9.6246 38.7663 14.8127 38.7663L29.5704 38.858ZM41.2909 19.7861C41.2587 19.5362 41.2844 19.2822 41.366 19.0438C41.4476 18.8054 41.5829 18.5889 41.7615 18.4112C42.098 18.1476 42.5207 18.0191 42.947 18.0506H48.1045C48.5308 18.0191 48.9535 18.1476 49.29 18.4112C49.4697 18.5884 49.6061 18.8046 49.6888 19.043C49.7714 19.2815 49.7981 19.5357 49.7667 19.7861V38.858H59.104V16.3701C59.104 14.9524 58.9574 13.7425 57.9124 12.5386C56.5802 11.0598 54.912 11.0109 53.3904 11.0109H37.6611C36.1395 11.0109 34.4774 11.0598 33.1452 12.5386C32.0941 13.7608 31.923 14.983 31.923 16.3701V38.858H41.2909V19.7861ZM75.9516 10.6993C71.949 10.6993 67.4759 10.8521 64.7138 13.5347C61.5728 16.6329 61.3772 22.151 61.3772 24.9375C61.3772 27.7241 61.5728 33.236 64.7138 36.3403C67.4759 39.023 71.949 39.1758 75.9516 39.1758C79.9542 39.1758 84.4212 39.023 87.1833 36.3403C90.3365 33.236 90.5198 27.7241 90.5198 24.9375C90.5198 22.151 90.3365 16.6329 87.1833 13.5347C84.4212 10.8521 79.9542 10.6993 75.9516 10.6993ZM80.0397 29.8262C79.612 30.5106 78.4692 31.7206 75.9516 31.7206C73.0917 31.7206 71.9979 30.1379 71.8023 29.8262C71.4235 29.2151 70.904 27.993 70.904 24.9375C70.904 21.6743 71.4662 20.4644 71.8023 19.945C72.2912 19.2606 73.3728 18.1545 75.9516 18.1545C78.5304 18.1545 79.6181 19.2606 80.0947 19.945C80.5714 20.6294 80.9991 21.9982 80.9991 24.9375C80.9991 26.9358 80.8097 28.6651 80.0397 29.8262ZM109.824 11.0109H98.0911C96.8194 10.9115 95.5534 11.2642 94.5163 12.007C93.0497 13.1681 92.8053 14.7386 92.8053 16.2846V47.7676H102.143V38.858H109.042C111.663 38.858 115.47 38.6014 117.756 35.0265C119.711 31.9222 119.803 26.508 119.803 24.0881C119.803 21.4177 119.613 16.7918 117.096 13.9014C114.755 11.2248 111.474 11.0109 109.824 11.0109ZM109.732 29.2457C109.433 29.9101 108.942 30.4702 108.323 30.8544C107.703 31.2386 106.984 31.4295 106.255 31.4028H102.161V19.7922C102.167 19.4493 102.282 19.1173 102.491 18.845C102.705 18.6489 102.973 18.5213 103.261 18.4784H106.542C107.279 18.4574 108.002 18.6761 108.604 19.1014C109.206 19.5267 109.653 20.1358 109.879 20.8372C110.229 22.1576 110.371 23.5245 110.301 24.8886C110.282 26.673 110.233 28.1396 109.714 29.2457H109.732ZM120.683 18.3623H130.112V38.858H139.443V18.3623H148.872V11.0293H120.665L120.683 18.3623ZM9.60627 43.2761C9.49714 43.0827 9.33169 42.927 9.13193 42.8298C8.93216 42.7327 8.70756 42.6987 8.48798 42.7323C8.26929 42.6991 8.04568 42.7334 7.84697 42.8305C7.64827 42.9277 7.4839 43.0832 7.37581 43.2761L5.89699 46.3621H5.40812V47.6698H11.574V46.3621H11.0851L9.60627 43.2761ZM7.62635 46.3621L8.3841 44.3516C8.3841 44.315 8.42687 44.2539 8.46354 44.2539C8.50021 44.2539 8.53076 44.315 8.54909 44.3516L9.33128 46.3621H7.62635ZM18.1614 45.5983C18.2772 45.483 18.3646 45.3424 18.4166 45.1875C18.4686 45.0327 18.4837 44.8678 18.4609 44.7061C18.4942 44.41 18.464 44.1103 18.3723 43.8268C18.2806 43.5434 18.1296 43.2827 17.9292 43.0623C17.5381 42.7506 16.8904 42.7323 15.8943 42.7323C14.8982 42.7323 14.0244 42.7323 13.5722 43.2089C13.12 43.6856 13.175 44.3883 13.175 45.2866C13.1084 45.881 13.1946 46.4826 13.4255 47.0343C13.8105 47.6454 14.4338 47.6454 15.1671 47.6454H18.2836V46.3377H15.9126C15.5888 46.3377 15.2527 46.3377 15.0938 46.1055C15.0299 45.9832 15.0004 45.8459 15.0082 45.7082H17.697C17.86 45.728 18.0246 45.689 18.1614 45.5983ZM16.3282 44.5961H15.0082C15.0082 44.3455 15.0082 44.15 15.2038 44.0522C15.4003 43.9855 15.6076 43.9565 15.8149 43.9667C15.9764 43.9689 16.1376 43.9812 16.2976 44.0033C16.5665 44.0583 16.6337 44.205 16.6337 44.3333C16.6337 44.4616 16.6154 44.5961 16.3587 44.5961H16.3282ZM23.8689 44.4983H22.2862V42.7873H20.453V47.6759H22.2862V45.8121H23.8995V47.6759H25.7328V42.7873H23.8995L23.8689 44.4983ZM31.813 44.4189H29.6437V42.7873H27.8104V46.7043C27.8015 46.8343 27.8191 46.9647 27.8622 47.0876C27.9052 47.2105 27.9729 47.3234 28.061 47.4193C28.157 47.5091 28.2708 47.5778 28.395 47.621C28.5192 47.6641 28.651 47.6808 28.7821 47.6698H31.8375C31.9971 47.6869 32.1584 47.6701 32.3111 47.6206C32.4638 47.5711 32.6043 47.49 32.7235 47.3826C32.8667 47.2155 32.9742 47.0209 33.0393 46.8107C33.1045 46.6005 33.126 46.3792 33.1024 46.1605C33.1518 45.6948 33.0443 45.2259 32.7969 44.8283C32.6822 44.6937 32.5385 44.5869 32.3765 44.516C32.2146 44.445 32.0386 44.4118 31.8619 44.4189H31.813ZM31.0858 46.2949C30.9754 46.3537 30.8495 46.3772 30.7253 46.3621H30.0287C29.9248 46.3686 29.8223 46.3359 29.7415 46.2704C29.6695 46.1833 29.6344 46.0714 29.6437 45.9588V45.6166H30.7742C30.909 45.6006 31.0454 45.6262 31.1653 45.6899C31.2015 45.7276 31.2286 45.7731 31.2444 45.8229C31.2603 45.8727 31.2646 45.9254 31.2569 45.9771C31.2655 46.0361 31.2587 46.0963 31.2373 46.152C31.2159 46.2076 31.1806 46.2568 31.1347 46.2949H31.0858ZM42.6964 45.1644V45.1277C42.8305 45.1377 42.9652 45.117 43.0901 45.0673C43.215 45.0175 43.327 44.94 43.4175 44.8405C43.6004 44.5799 43.6924 44.2663 43.6792 43.9481C43.6659 43.63 43.5482 43.3251 43.3442 43.0806C42.9841 42.8419 42.5512 42.738 42.122 42.7873H38.9016V44.0094H41.3826C41.5781 44.0094 41.8837 44.0094 41.8837 44.3028C41.8837 44.5961 41.5659 44.6022 41.3704 44.6022H38.9383V45.7205H41.3826C41.5843 45.7205 41.9203 45.7205 41.9203 46.0443C41.9203 46.3682 41.6026 46.3499 41.4009 46.3499H38.8099V47.6576H42.1709C42.5818 47.7008 42.9952 47.6039 43.3442 47.3826C43.4833 47.2472 43.591 47.0829 43.6596 46.9012C43.7282 46.7196 43.7562 46.5251 43.7414 46.3316C43.756 46.0091 43.6491 45.693 43.4419 45.4455C43.3517 45.346 43.2396 45.2689 43.1145 45.2201C42.9894 45.1713 42.8546 45.1522 42.7209 45.1644H42.6964ZM49.2045 42.7873H45.9474V44.0094H48.3917C48.4934 43.9925 48.5977 44.0015 48.6949 44.0357C48.7921 44.0699 48.8791 44.1281 48.9478 44.205C49.0147 44.2971 49.0491 44.4089 49.0456 44.5228V44.6022H46.8885C46.5822 44.5721 46.2746 44.6453 46.0146 44.81C45.8541 44.9671 45.7321 45.1591 45.6579 45.3711C45.5837 45.583 45.5594 45.8092 45.5868 46.0321C45.533 46.5249 45.6758 47.0189 45.9841 47.4071C46.2414 47.6056 46.5652 47.6975 46.8885 47.6637H49.785C49.9347 47.6805 50.0862 47.6664 50.2302 47.6223C50.3742 47.5781 50.5076 47.5049 50.6222 47.4071C50.7123 47.2992 50.7803 47.1745 50.8223 47.0403C50.8642 46.9061 50.8793 46.7649 50.8666 46.6249V44.5778C50.8998 44.076 50.7328 43.5816 50.4022 43.2028C50.0762 42.9235 49.658 42.7754 49.2289 42.7873H49.2045ZM49.07 46.0566C49.075 46.1013 49.0686 46.1466 49.0515 46.1882C49.0345 46.2298 49.0072 46.2665 48.9723 46.2949C48.8916 46.3441 48.7978 46.3676 48.7034 46.3621H47.7562C47.6657 46.3608 47.578 46.3309 47.5056 46.2766C47.4784 46.2498 47.4576 46.2172 47.4449 46.1812C47.4322 46.1452 47.4279 46.1067 47.4323 46.0688C47.4276 46.0271 47.4317 45.9849 47.4443 45.9449C47.4569 45.9049 47.4778 45.868 47.5056 45.8366C47.5835 45.7793 47.6779 45.7493 47.7745 45.751H49.07V46.0566ZM60.5217 43.2761C60.3891 43.1071 60.2198 42.9705 60.0266 42.8765C59.8334 42.7826 59.6213 42.7337 59.4065 42.7337C59.1917 42.7337 58.9796 42.7826 58.7864 42.8765C58.5932 42.9705 58.4239 43.1071 58.2913 43.2761L56.8125 46.3621H56.3236V47.6698H62.4894V46.3621H61.9944L60.5217 43.2761ZM58.5418 46.3621L59.324 44.3516C59.324 44.315 59.3668 44.2539 59.4034 44.2539C59.4401 44.2539 59.4707 44.315 59.489 44.3516L60.2712 46.3621H58.5418ZM67.6592 44.4983H66.0459V42.7873H64.2127V47.6759H66.0459V45.8121H67.6592V47.6759H69.4924V42.7873H67.6592V44.4983ZM76.4588 45.5983C76.5723 45.4817 76.6578 45.3407 76.7086 45.1861C76.7595 45.0315 76.7743 44.8673 76.7521 44.7061C76.7866 44.4105 76.7576 44.1109 76.6669 43.8274C76.5763 43.5439 76.4262 43.283 76.2266 43.0623C75.8355 42.7506 75.1816 42.7323 74.1917 42.7323C73.2017 42.7323 72.3217 42.7323 71.8695 43.2089C71.4173 43.6856 71.4662 44.3883 71.4662 45.2866C71.3996 45.881 71.4859 46.4826 71.7168 47.0343C72.1079 47.6454 72.7312 47.6454 73.4645 47.6454H76.5749V46.3377H74.1917C73.8617 46.3377 73.5317 46.3377 73.3728 46.1055C73.3061 45.9842 73.2764 45.8462 73.2873 45.7082H75.976C76.151 45.7373 76.3304 45.6979 76.4771 45.5983H76.4588ZM74.6255 44.5961H73.275C73.275 44.3455 73.275 44.15 73.4706 44.0522C73.667 43.9851 73.8744 43.9561 74.0817 43.9667C74.2432 43.9689 74.4044 43.9812 74.5644 44.0033C74.8333 44.0583 74.8944 44.205 74.8944 44.3333C74.8944 44.4616 74.9127 44.5961 74.6561 44.5961H74.6255ZM84.4823 42.7323C83.7979 42.7323 83.4007 42.9462 83.2051 43.49L82.4352 45.6044C82.3863 45.7327 82.313 45.8182 82.258 45.8182C82.203 45.8182 82.1296 45.7327 82.0808 45.6044L81.3108 43.49C81.2211 43.2349 81.0448 43.0193 80.8126 42.8809C80.5803 42.7424 80.3068 42.6898 80.0397 42.7323C79.3798 42.7323 78.7259 43.0195 78.7259 43.6611V47.6698H80.5592L80.4675 45.0422C80.4675 44.9627 80.5042 44.9322 80.5347 44.9322C80.5653 44.9322 80.608 44.9811 80.6386 45.0605L81.4147 47.2482C81.5674 47.6698 81.9097 47.7248 82.2702 47.7248C82.6307 47.7248 82.979 47.6698 83.1257 47.2482L83.9079 45.0544C83.9079 44.9688 83.969 44.9261 84.0057 44.9261C84.0423 44.9261 84.0729 44.9261 84.0729 45.0361L83.9812 47.6698H85.8145V43.6611C85.8206 43.0195 85.1667 42.7323 84.5129 42.7323H84.4823ZM35.9867 7.56443C36.9645 7.56443 37.2517 7.17945 37.3617 6.79447L38.0644 4.48457C38.0644 4.42347 38.1072 4.32569 38.15 4.32569C38.1927 4.32569 38.2111 4.42347 38.2294 4.48457L38.9383 6.79447C39.0483 7.17945 39.3294 7.56443 40.3071 7.56443C40.6352 7.61163 40.9686 7.52688 41.2343 7.32873C41.5001 7.13058 41.6764 6.83519 41.7248 6.50726L42.947 2.22967H41.0648L40.2582 5.28509C40.2582 5.32176 40.2093 5.44397 40.1604 5.44397C40.1115 5.44397 40.0749 5.32175 40.0688 5.29731L39.2805 2.73076C39.2071 2.49855 39.0177 2.16857 38.15 2.16857C37.2822 2.16857 37.0867 2.49855 37.0195 2.73076L36.2312 5.29731C36.2312 5.29731 36.1884 5.44397 36.1395 5.44397C36.0906 5.44397 36.0478 5.32176 36.0356 5.28509L35.229 2.22967H33.353L34.5751 6.50726C34.5952 6.67076 34.6481 6.82852 34.7306 6.97107C34.8132 7.11361 34.9237 7.23799 35.0556 7.33674C35.1874 7.43548 35.3379 7.50655 35.4979 7.54568C35.6579 7.58481 35.8242 7.59119 35.9867 7.56443ZM46.4118 7.56443C47.3895 7.56443 47.6706 7.17945 47.7806 6.79447L48.4895 4.48457C48.4895 4.42347 48.5323 4.32569 48.5689 4.32569C48.6056 4.32569 48.63 4.42347 48.6545 4.48457L49.3572 6.79447C49.4733 7.17945 49.7544 7.56443 50.7322 7.56443C50.8947 7.59119 51.061 7.58481 51.221 7.54568C51.381 7.50655 51.5315 7.43548 51.6633 7.33674C51.7952 7.23799 51.9057 7.11361 51.9883 6.97107C52.0708 6.82852 52.1237 6.67076 52.1438 6.50726L53.3659 2.22967H51.4899L50.6833 5.28509C50.6833 5.32176 50.6344 5.44397 50.5794 5.44397C50.5244 5.44397 50.5 5.32175 50.4877 5.29731L49.7056 2.73076C49.6322 2.49855 49.4428 2.16857 48.5689 2.16857C47.6951 2.16857 47.5118 2.49855 47.4384 2.73076L46.6501 5.29731C46.6501 5.29731 46.6135 5.44397 46.5646 5.44397C46.5157 5.44397 46.4729 5.32176 46.4607 5.28509L45.6541 2.22967H43.7719L44.9941 6.50726C45.0425 6.83519 45.2188 7.13058 45.4846 7.32873C45.7503 7.52688 46.0837 7.61163 46.4118 7.56443ZM56.8002 7.56443C57.7841 7.56443 58.0652 7.17945 58.1752 6.79447L58.884 4.48457C58.884 4.42347 58.9268 4.32569 58.9635 4.32569C59.0001 4.32569 59.0246 4.42347 59.0429 4.48457L59.7518 6.79447C59.8618 7.17945 60.149 7.56443 61.1267 7.56443C61.2892 7.59119 61.4555 7.58481 61.6155 7.54568C61.7755 7.50655 61.926 7.43548 62.0578 7.33674C62.1897 7.23799 62.3002 7.11361 62.3828 6.97107C62.4654 6.82852 62.5182 6.67076 62.5383 6.50726L63.7605 2.22967H61.915L61.1084 5.28509C61.1084 5.32176 61.0534 5.44397 61.0045 5.44397C60.9556 5.44397 60.925 5.32175 60.9128 5.29731L60.1245 2.73076C60.0573 2.49855 59.8618 2.16857 58.994 2.16857C58.1263 2.16857 57.9368 2.49855 57.8635 2.73076L57.0752 5.29731C57.0752 5.29731 57.0386 5.44397 56.9836 5.44397C56.9286 5.44397 56.8919 5.32176 56.8858 5.28509L56.0792 2.22967H54.2153L55.4375 6.50726C55.4577 6.66896 55.5101 6.82498 55.5915 6.96615C55.6729 7.10732 55.7817 7.23079 55.9115 7.32929C56.0413 7.42779 56.1895 7.49934 56.3474 7.53972C56.5053 7.5801 56.6696 7.5885 56.8308 7.56443H56.8002ZM66.5776 5.73118H64.6038V7.56443H66.602L66.5776 5.73118ZM69.468 5.26676L70.6168 5.63952C70.8242 5.69746 71.0282 5.76682 71.2279 5.84729C71.2533 5.85665 71.2755 5.87317 71.2918 5.89486C71.3081 5.91654 71.3177 5.94247 71.3196 5.96951C71.3213 5.98874 71.3177 6.00807 71.309 6.02534C71.3004 6.04261 71.2871 6.05713 71.2707 6.06728C71.2345 6.09226 71.1923 6.10704 71.1485 6.11005H68.2703V7.50943H72.0956C72.409 7.52882 72.7195 7.44041 72.9756 7.25889C73.1299 7.11488 73.2496 6.93783 73.3258 6.741C73.402 6.54416 73.4327 6.33265 73.4156 6.12228C73.4305 5.76282 73.3368 5.4072 73.1467 5.10176C72.8278 4.7358 72.3991 4.48284 71.9245 4.38069L70.5741 3.9346C70.3418 3.85516 70.4091 3.86127 70.1707 3.78183C70.1096 3.78183 70.0546 3.74516 70.0546 3.65961C70.0546 3.57406 70.0974 3.58017 70.1463 3.57406C70.2233 3.56232 70.3015 3.56232 70.3785 3.57406H73.2873V2.21134H69.6758C69.4458 2.17756 69.211 2.20626 68.996 2.29442C68.781 2.38258 68.5936 2.52696 68.4536 2.71243C68.2774 2.99831 68.1901 3.33014 68.203 3.66572C68.1959 3.97517 68.2651 4.28161 68.4047 4.5579C68.6798 4.90207 69.0631 5.14324 69.4924 5.24232L69.468 5.26676ZM76.746 7.50943H78.2065C78.5486 7.54454 78.8941 7.49616 79.2134 7.36844C79.5327 7.24073 79.8162 7.03748 80.0397 6.77614C80.3692 6.13322 80.5191 5.41332 80.4736 4.69234C80.5286 3.99589 80.324 3.30371 79.8992 2.74909C79.6908 2.55959 79.4467 2.41339 79.1813 2.31898C78.9159 2.22457 78.6344 2.18382 78.3531 2.19912H75.866C75.5999 2.1824 75.3352 2.24859 75.1083 2.38856C74.9818 2.48302 74.8821 2.60873 74.8189 2.75336C74.7557 2.89798 74.7312 3.05656 74.7477 3.21352V9.20825H76.7277L76.746 7.50943ZM76.746 3.84293C76.7486 3.77629 76.7721 3.71215 76.8132 3.65961C76.861 3.6225 76.9181 3.59924 76.9782 3.59239H77.6748C77.8253 3.58507 77.9743 3.62465 78.1012 3.70566C78.2282 3.78666 78.3269 3.90509 78.3837 4.04459C78.4565 4.29437 78.4855 4.55488 78.4692 4.81455C78.494 5.0968 78.4543 5.38098 78.3531 5.64563C78.2815 5.77703 78.1739 5.88531 78.0429 5.95781C77.912 6.03032 77.7631 6.06405 77.6137 6.05506H76.746V3.84293ZM84.8184 7.50943C85.6678 7.50943 86.615 7.50944 87.2016 6.97168C87.6647 6.34204 87.9145 5.58089 87.9145 4.79928C87.9145 4.01767 87.6647 3.25652 87.2016 2.62688C86.5905 2.11357 85.6678 2.08302 84.8184 2.08302C83.969 2.08302 83.0218 2.11357 82.4352 2.62688C81.9721 3.25652 81.7223 4.01767 81.7223 4.79928C81.7223 5.58089 81.9721 6.34204 82.4352 6.97168C83.0218 7.50944 83.969 7.56443 84.8184 7.56443V7.50943ZM83.9384 3.84293C84.1786 3.62264 84.4926 3.50042 84.8184 3.50042C85.1443 3.50042 85.4583 3.62264 85.6984 3.84293C85.8272 4.13995 85.8937 4.46025 85.8937 4.784C85.8937 5.10775 85.8272 5.42806 85.6984 5.72507C85.5845 5.84148 85.4486 5.93397 85.2985 5.99712C85.1485 6.06026 84.9873 6.09279 84.8245 6.09279C84.6617 6.09279 84.5005 6.06026 84.3505 5.99712C84.2004 5.93397 84.0645 5.84148 83.9507 5.72507C83.7936 5.44004 83.7275 5.1138 83.7612 4.79012C83.7322 4.48378 83.7938 4.17566 83.9384 3.90404V3.84293ZM93.1841 2.13801H91.8703C91.1732 2.08308 90.4774 2.25918 89.8904 2.6391C89.6636 2.86311 89.4908 3.13577 89.3849 3.43643C89.279 3.7371 89.2429 4.0579 89.2793 4.37458V7.43H91.2592V4.894C91.2365 4.53843 91.3286 4.18496 91.522 3.88571C91.6447 3.74436 91.8003 3.63533 91.9751 3.5682C92.1498 3.50107 92.3384 3.4779 92.5242 3.50073H93.2086L93.1841 2.13801ZM94.9807 5.80451C94.9818 6.05983 95.0439 6.3112 95.1619 6.53762C95.2799 6.76405 95.4504 6.95897 95.659 7.10612C96.166 7.38005 96.7401 7.50505 97.3151 7.46666H98.47V6.04283H98.1767C97.8644 6.07049 97.553 5.9812 97.3028 5.79229C97.1752 5.64846 97.0789 5.47966 97.02 5.29662C96.9611 5.11357 96.9409 4.92027 96.9606 4.729V3.50684H98.4883V2.14412H96.9912V0.445312H95.0113V2.14412H94.2535V3.50684H95.0113L94.9807 5.80451ZM100.933 5.19343L102.088 5.56619C102.509 5.70674 102.619 5.73729 102.699 5.77396C102.724 5.78332 102.746 5.79984 102.763 5.82152C102.779 5.84321 102.788 5.86913 102.79 5.89617C102.792 5.91541 102.788 5.93474 102.78 5.95201C102.771 5.96928 102.758 5.9838 102.741 5.99395C102.705 6.01893 102.663 6.03371 102.619 6.03672H99.6983V7.50943H103.53C103.841 7.5289 104.15 7.44042 104.404 7.25889C104.56 7.11602 104.681 6.93931 104.758 6.7423C104.836 6.54529 104.867 6.33321 104.85 6.12228C104.865 5.76197 104.769 5.40573 104.575 5.10176C104.256 4.73614 103.827 4.48325 103.353 4.38069L101.996 3.9346C101.764 3.85516 101.837 3.86127 101.593 3.78183C101.532 3.78183 101.483 3.74516 101.483 3.65961C101.483 3.57406 101.525 3.58017 101.574 3.57406C101.651 3.56203 101.73 3.56203 101.807 3.57406H104.715V2.21134H101.14C100.911 2.17756 100.676 2.20626 100.461 2.29442C100.246 2.38258 100.058 2.52696 99.9183 2.71243C99.7374 2.99655 99.6479 3.32921 99.6616 3.66572C99.6544 3.97517 99.7237 4.28161 99.8633 4.5579C100.134 4.89863 100.51 5.13947 100.933 5.24232V5.19343ZM107.991 7.50943H110.643C110.814 7.53092 110.989 7.5092 111.15 7.44624C111.311 7.38328 111.454 7.28107 111.566 7.1489C111.692 6.91481 111.751 6.65054 111.737 6.38504V0.500308H109.757V2.19912H108.229C107.894 2.17115 107.557 2.22493 107.247 2.35585C106.938 2.48677 106.664 2.69092 106.451 2.95075C106.138 3.48574 106.001 4.10577 106.06 4.7229C106.024 5.31992 106.107 5.91804 106.304 6.48281C106.439 6.81117 106.676 7.08779 106.979 7.27243C107.283 7.45707 107.637 7.5401 107.991 7.50943ZM108.253 3.88571C108.321 3.78562 108.412 3.7037 108.518 3.64721C108.625 3.59071 108.744 3.56139 108.865 3.56184H109.732V5.70674C109.746 5.83584 109.708 5.96509 109.628 6.06728C109.544 6.12984 109.439 6.15822 109.335 6.14672H108.865C108.722 6.15378 108.58 6.12094 108.455 6.05186C108.329 5.98278 108.226 5.8802 108.156 5.75562C108.035 5.46377 107.987 5.14729 108.015 4.83289C107.995 4.50098 108.076 4.17083 108.247 3.88571H108.253ZM114.523 7.50943H117.67C117.833 7.52594 117.998 7.50957 118.154 7.46128C118.31 7.41299 118.456 7.33378 118.581 7.22834C118.68 7.11075 118.754 6.97438 118.799 6.82737C118.845 6.68037 118.86 6.52576 118.844 6.37282V4.15459C118.863 3.88477 118.828 3.61378 118.741 3.35767C118.654 3.10156 118.516 2.86553 118.336 2.66354C117.975 2.34031 117.5 2.17332 117.016 2.19912H113.49V3.52517H116.179C116.29 3.50794 116.404 3.51783 116.51 3.55401C116.617 3.59019 116.713 3.65158 116.79 3.73294C116.861 3.8349 116.895 3.9575 116.888 4.08126V4.1607H114.548C114.213 4.1293 113.877 4.21107 113.594 4.39291C113.418 4.56578 113.285 4.77718 113.204 5.01046C113.123 5.24375 113.098 5.49255 113.13 5.73729C113.074 6.27188 113.23 6.80698 113.564 7.22834C113.838 7.43803 114.18 7.53824 114.523 7.50943ZM115.171 5.5173C115.252 5.4529 115.354 5.42032 115.458 5.42564H116.864V5.75562C116.871 5.80319 116.865 5.85177 116.848 5.89671C116.831 5.94164 116.803 5.98144 116.766 6.01228C116.678 6.06634 116.576 6.09195 116.473 6.08561H115.44C115.342 6.08707 115.247 6.05468 115.171 5.99395C115.14 5.96406 115.117 5.92771 115.102 5.88753C115.087 5.84735 115.081 5.80437 115.085 5.76174C115.081 5.71724 115.087 5.67238 115.102 5.63021C115.116 5.58804 115.14 5.54953 115.171 5.5173ZM122.345 0.500308H120.365V1.66748H122.345V0.500308ZM122.345 2.19912H120.365V7.50943H122.345V2.19912ZM125.847 0.500308H123.879V7.50943H125.859L125.847 0.500308ZM128.633 9.22047H130.601L133.803 2.19912H131.823L130.344 5.56619L128.939 2.19912H126.934L129.482 7.50943L128.633 9.22047ZM136.259 5.70674H134.267V7.53999H136.266L136.259 5.70674ZM139.926 4.97344C139.903 4.61787 139.995 4.26439 140.189 3.96515C140.311 3.82472 140.465 3.71624 140.639 3.64915C140.813 3.58206 141 3.55838 141.185 3.58017H141.875V2.19912H140.561C139.864 2.14419 139.169 2.32028 138.582 2.70021C138.355 2.92422 138.182 3.19687 138.076 3.49754C137.97 3.79821 137.934 4.11901 137.97 4.43569V7.4911H139.95L139.926 4.97344ZM146.886 2.19912V5.67618C146.893 5.73401 146.889 5.79272 146.872 5.84852C146.855 5.90432 146.826 5.95595 146.788 6.00006C146.691 6.07979 146.566 6.11914 146.44 6.11005H146.079C145.924 6.12716 145.766 6.10605 145.62 6.04856C145.474 5.99106 145.345 5.89891 145.242 5.78007C145.085 5.50387 145.017 5.18594 145.047 4.86955V2.22356H143.067V5.1201C143.023 5.47714 143.061 5.83951 143.179 6.1795C143.296 6.51949 143.49 6.82809 143.745 7.08168C144.185 7.40118 144.725 7.5529 145.267 7.50943H147.711C148.021 7.52681 148.329 7.44085 148.585 7.265C148.703 7.16176 148.794 7.03195 148.851 6.88635C148.909 6.74074 148.93 6.58355 148.915 6.42782V2.19912H146.886Z" fill="#009136"/>
</g>
<defs>
<clipPath id="clip0">
<rect width="148.487" height="47.2979" fill="white" transform="translate(0.378906 0.5)"/>
</clipPath>
</defs>
</svg>
