<svg width="45" height="31" viewBox="0 0 45 31" fill="none" xmlns="http://www.w3.org/2000/svg">
<path d="M0.273438 5.08887C0.273438 2.32744 2.51201 0.0888672 5.27344 0.0888672H39.2734C42.0349 0.0888672 44.2734 2.32744 44.2734 5.08887V25.0889C44.2734 27.8503 42.0349 30.0889 39.2734 30.0889H5.27344C2.51201 30.0889 0.273438 27.8503 0.273438 25.0889V5.08887Z" fill="#DB4437"/>
<g clip-path="url(#clip0)">
<path d="M29.9931 12.708H27.778V14.913H25.573V17.1281H27.778V19.3332H29.9931V17.1281H32.1981V14.913H29.9931V12.708Z" fill="white"/>
<path d="M15.4861 23.3434C19.8698 23.3434 22.7818 20.2663 22.7818 15.9231C22.7818 15.4258 22.7301 15.0419 22.6582 14.6591H15.4871V17.2702H19.7989C19.6227 18.3793 18.4933 20.5448 15.4871 20.5448C12.8972 20.5448 10.7824 18.3996 10.7824 15.7469C10.7824 13.0942 12.8962 10.9479 15.4871 10.9479C16.969 10.9479 17.9535 11.5799 18.5136 12.1188L20.5758 10.1397C19.2479 8.89687 17.5382 8.15039 15.4861 8.15039C11.2888 8.15039 7.88965 11.5496 7.88965 15.7469C7.88965 19.9442 11.2888 23.3434 15.4861 23.3434Z" fill="white"/>
</g>
<defs>
<clipPath id="clip0">
<rect width="24.3087" height="24.3087" fill="white" transform="translate(7.88965 3.59277)"/>
</clipPath>
</defs>
</svg>
