<svg width="19" height="20" viewBox="0 0 19 20" fill="none" xmlns="http://www.w3.org/2000/svg">
<path d="M9.53657 0C6.67941 0 4.34381 2.33559 4.34381 5.19275C4.34381 8.04991 6.67941 10.3855 9.53657 10.3855C12.3937 10.3855 14.7293 8.04991 14.7293 5.19275C14.7293 2.33559 12.3937 0 9.53657 0Z" fill="white"/>
<path d="M18.4472 14.5352C18.3111 14.195 18.1297 13.8776 17.9256 13.5828C16.8825 12.0408 15.2726 11.0204 13.4585 10.771C13.2318 10.7483 12.9824 10.7937 12.8009 10.9297C11.8486 11.6327 10.7148 11.9955 9.53562 11.9955C8.35646 11.9955 7.22269 11.6327 6.2703 10.9297C6.08888 10.7937 5.83944 10.7256 5.61271 10.771C3.79864 11.0204 2.16601 12.0408 1.14561 13.5828C0.941527 13.8776 0.760103 14.2177 0.624079 14.5352C0.556067 14.6713 0.578723 14.83 0.646735 14.966C0.828159 15.2835 1.05489 15.601 1.25897 15.8731C1.57642 16.3039 1.91657 16.6894 2.30207 17.0522C2.61952 17.3696 2.98233 17.6644 3.34517 17.9592C5.13654 19.2971 7.29075 20 9.51297 20C11.7352 20 13.8894 19.2971 15.6808 17.9592C16.0436 17.6871 16.4064 17.3696 16.7239 17.0522C17.0867 16.6894 17.4495 16.3039 17.767 15.8731C17.9937 15.5783 18.1978 15.2835 18.3792 14.966C18.4925 14.83 18.5152 14.6712 18.4472 14.5352Z" fill="white"/>
</svg>
