<svg width="12" height="11" viewBox="0 0 12 11" fill="none" xmlns="http://www.w3.org/2000/svg">
<path d="M8.01162 0.175781H4.06991C2.25607 0.175781 0.785156 1.6467 0.785156 3.46054V7.40225C0.785156 9.21609 2.25607 10.687 4.06991 10.687H8.01162C9.82546 10.687 11.2964 9.21609 11.2964 7.40225V3.46054C11.2964 1.6467 9.82546 0.175781 8.01162 0.175781ZM10.311 7.40225C10.311 8.67016 9.27954 9.70158 8.01162 9.70158H4.06991C2.802 9.70158 1.77058 8.67016 1.77058 7.40225V3.46054C1.77058 2.19262 2.802 1.16121 4.06991 1.16121H8.01162C9.27954 1.16121 10.311 2.19262 10.311 3.46054V7.40225Z" fill="#009136"/>
<path d="M6.04077 2.80359C4.58956 2.80359 3.41296 3.98019 3.41296 5.43139C3.41296 6.8826 4.58956 8.0592 6.04077 8.0592C7.49197 8.0592 8.66857 6.8826 8.66857 5.43139C8.66857 3.98019 7.49197 2.80359 6.04077 2.80359ZM6.04077 7.07377C5.13549 7.07377 4.39839 6.33667 4.39839 5.43139C4.39839 4.52546 5.13549 3.78901 6.04077 3.78901C6.94605 3.78901 7.68315 4.52546 7.68315 5.43139C7.68315 6.33667 6.94605 7.07377 6.04077 7.07377Z" fill="#009136"/>
<path d="M8.86559 2.95667C9.05897 2.95667 9.21574 2.7999 9.21574 2.60651C9.21574 2.41313 9.05897 2.25636 8.86559 2.25636C8.6722 2.25636 8.51543 2.41313 8.51543 2.60651C8.51543 2.7999 8.6722 2.95667 8.86559 2.95667Z" fill="#009136"/>
</svg>
