<svg width="21" height="21" viewBox="0 0 21 21" fill="none" xmlns="http://www.w3.org/2000/svg">
<path d="M13.789 0H6.28476C2.83157 0 0.03125 2.80032 0.03125 6.25351V13.7577C0.03125 17.2109 2.83157 20.0112 6.28476 20.0112H13.789C17.2421 20.0112 20.0425 17.2109 20.0425 13.7577V6.25351C20.0425 2.80032 17.2421 0 13.789 0ZM18.1664 13.7577C18.1664 16.1716 16.2028 18.1352 13.789 18.1352H6.28476C3.8709 18.1352 1.9073 16.1716 1.9073 13.7577V6.25351C1.9073 3.83965 3.8709 1.87605 6.28476 1.87605H13.789C16.2028 1.87605 18.1664 3.83965 18.1664 6.25351V13.7577Z" fill="white"/>
<path d="M10.0369 5.00281C7.27406 5.00281 5.03406 7.24281 5.03406 10.0056C5.03406 12.7684 7.27406 15.0084 10.0369 15.0084C12.7997 15.0084 15.0397 12.7684 15.0397 10.0056C15.0397 7.24281 12.7997 5.00281 10.0369 5.00281ZM10.0369 13.1324C8.31339 13.1324 6.91011 11.7291 6.91011 10.0056C6.91011 8.28089 8.31339 6.87886 10.0369 6.87886C11.7603 6.87886 13.1636 8.28089 13.1636 10.0056C13.1636 11.7291 11.7603 13.1324 10.0369 13.1324Z" fill="white"/>
<path d="M15.4147 5.29424C15.7829 5.29424 16.0814 4.99578 16.0814 4.62762C16.0814 4.25945 15.7829 3.96099 15.4147 3.96099C15.0466 3.96099 14.7481 4.25945 14.7481 4.62762C14.7481 4.99578 15.0466 5.29424 15.4147 5.29424Z" fill="white"/>
</svg>
