<svg width="20" height="20" viewBox="0 0 20 20" fill="none" xmlns="http://www.w3.org/2000/svg">
<path d="M3.26477 6.62586H0.65297C0.293907 6.62586 0 6.91829 0 7.27879V19.032C0 19.3923 0.292618 19.6848 0.65297 19.6848H3.26477C3.62512 19.6848 3.91774 19.3923 3.91774 19.032V7.27879C3.91774 6.91829 3.6238 6.62586 3.26477 6.62586Z" fill="#828282"/>
<path d="M18.37 6.62589C18.2648 6.60808 13.3411 6.62589 13.3411 6.62589L14.0288 4.74964C14.5034 3.45378 14.1961 1.47514 12.8795 0.771701C12.4507 0.542638 11.8518 0.427599 11.3688 0.549161C11.0919 0.618849 10.8485 0.802209 10.7034 1.04787C10.5366 1.33041 10.5538 1.66022 10.4944 1.9735C10.3437 2.76811 9.96824 3.52362 9.3868 4.09069C8.37304 5.0794 5.22386 7.93175 5.22386 7.93175V18.379H16.1064C17.5749 18.3799 18.5372 16.7401 17.8129 15.4592C18.6763 14.9062 18.9715 13.7416 18.4659 12.8474C19.3293 12.2944 19.6245 11.1298 19.1189 10.2355C20.6085 9.28152 20.1105 6.92027 18.37 6.62589Z" fill="#828282"/>
</svg>
