<svg width="20" height="20" viewBox="0 0 20 20" fill="none" xmlns="http://www.w3.org/2000/svg">
<g clip-path="url(#clip0)">
<path d="M10.0576 0.641602C9.09589 0.641602 8.31348 1.42402 8.31348 2.38574V4.76074C8.31348 5.72247 9.09589 6.50488 10.0576 6.50488C11.0193 6.50488 11.8018 5.72247 11.8018 4.76074V2.38574C11.8018 1.42402 11.0193 0.641602 10.0576 0.641602Z" fill="white"/>
<path d="M10.0576 13.7783C9.09589 13.7783 8.31348 14.5607 8.31348 15.5225V17.8975C8.31348 18.8592 9.09589 19.6416 10.0576 19.6416C11.0193 19.6416 11.8018 18.8592 11.8018 17.8975V15.5225C11.8018 14.5607 11.0193 13.7783 10.0576 13.7783Z" fill="white"/>
<path d="M4.67676 8.39746H2.30176C1.34003 8.39746 0.557617 9.17988 0.557617 10.1416C0.557617 11.1033 1.34003 11.8857 2.30176 11.8857H4.67676C5.63848 11.8857 6.4209 11.1033 6.4209 10.1416C6.4209 9.17988 5.63848 8.39746 4.67676 8.39746Z" fill="white"/>
<path d="M17.8135 8.39746H15.4385C14.4768 8.39746 13.6943 9.17988 13.6943 10.1416C13.6943 11.1033 14.4768 11.8857 15.4385 11.8857H17.8135C18.7752 11.8857 19.5576 11.1033 19.5576 10.1416C19.5576 9.17988 18.7752 8.39746 17.8135 8.39746Z" fill="white"/>
<path d="M7.48601 12.713C7.15663 12.3836 6.71863 12.2021 6.25275 12.2021C5.78688 12.2021 5.34888 12.3836 5.01946 12.713L3.34004 14.3924C2.66008 15.0724 2.66008 16.1789 3.34008 16.8589C3.6695 17.1884 4.10746 17.3698 4.57337 17.3698C5.03928 17.3698 5.47724 17.1883 5.80663 16.8589L7.48601 15.1796C7.81543 14.8502 7.99689 14.4122 7.99689 13.9463C7.99689 13.4804 7.81543 13.0424 7.48601 12.713Z" fill="white"/>
<path d="M16.775 3.42397C16.4456 3.09451 16.0076 2.91309 15.5417 2.91309C15.0758 2.91309 14.6378 3.09455 14.3084 3.42397L12.629 5.10332C12.2996 5.43274 12.1182 5.8707 12.1182 6.33661C12.1182 6.80248 12.2996 7.24048 12.629 7.5699C12.9584 7.89932 13.3964 8.08075 13.8623 8.08075C14.3282 8.08075 14.7662 7.89932 15.0956 7.5699L16.775 5.89052C17.455 5.21049 17.455 4.104 16.775 3.42397Z" fill="white"/>
<path d="M16.775 14.3924L15.0956 12.713C14.7662 12.3836 14.3282 12.2021 13.8623 12.2021C13.3964 12.2021 12.9584 12.3836 12.629 12.713C12.2996 13.0424 12.1182 13.4804 12.1182 13.9463C12.1182 14.4122 12.2996 14.8502 12.629 15.1795L14.3084 16.8589C14.6378 17.1884 15.0758 17.3698 15.5417 17.3698C16.0076 17.3698 16.4456 17.1883 16.775 16.859C17.455 16.1789 17.455 15.0724 16.775 14.3924Z" fill="white"/>
<path d="M7.48601 5.10332L5.80666 3.42397C5.47724 3.09451 5.03924 2.91309 4.57336 2.91309C4.10749 2.91309 3.66949 3.09455 3.34007 3.42397C2.66008 4.104 2.66008 5.21049 3.34007 5.89056L5.01949 7.56994C5.34891 7.89936 5.78692 8.08079 6.25279 8.08079C6.71866 8.08075 7.15666 7.89936 7.48601 7.56987C7.81543 7.24045 7.99689 6.80248 7.99689 6.33657C7.99689 5.8707 7.81543 5.4327 7.48601 5.10332Z" fill="white"/>
</g>
<defs>
<clipPath id="clip0">
<rect x="0.557617" y="0.641602" width="19" height="19" rx="9.5" fill="white"/>
</clipPath>
</defs>
</svg>
