<svg width="17" height="17" viewBox="0 0 17 17" fill="none" xmlns="http://www.w3.org/2000/svg">
<g clip-path="url(#clip0)">
<path d="M8.09324 0.938965C5.13408 0.938965 2.72656 3.34648 2.72656 6.30565C2.72656 10.025 8.09852 16.3784 8.09852 16.3784C8.09852 16.3784 13.4599 9.8421 13.4599 6.30565C13.4599 3.34648 11.0525 0.938965 8.09324 0.938965ZM9.71248 7.87701C9.266 8.3234 8.67967 8.54665 8.09324 8.54665C7.50691 8.54665 6.9204 8.3234 6.4741 7.87701C5.58122 6.98423 5.58122 5.53151 6.4741 4.63863C6.90645 4.20609 7.48156 3.96786 8.09324 3.96786C8.70492 3.96786 9.27994 4.20619 9.71248 4.63863C10.6054 5.53151 10.6054 6.98423 9.71248 7.87701Z" fill="white"/>
</g>
<defs>
<clipPath id="clip0">
<rect width="16.4688" height="16.4688" fill="white" transform="translate(0 0.432129)"/>
</clipPath>
</defs>
</svg>
