<svg width="86" height="87" viewBox="0 0 86 87" fill="none" xmlns="http://www.w3.org/2000/svg">
<path d="M44.4016 73.9789C59.9018 73.9789 72.4672 61.4135 72.4672 45.9133C72.4672 30.4131 59.9018 17.8477 44.4016 17.8477C28.9013 17.8477 16.3359 30.4131 16.3359 45.9133C16.3359 61.4135 28.9013 73.9789 44.4016 73.9789Z" fill="#0A891F"/>
<path d="M42.5523 60.6838C38.4203 60.6838 35.6532 60.0571 33.4928 57.0554C31.9018 54.8635 31.0691 51.9533 31.0691 46.2961C31.0691 41.36 31.4869 37.6429 33.3812 34.9846C35.8106 31.525 39.6708 31.1416 42.6668 31.1416H53.8896V38.4928H46.7988C43.9974 38.4928 41.9085 38.4442 40.7352 40.8106C39.977 42.2872 39.8596 44.6965 39.8596 46.1273C39.8596 49.4152 40.2746 50.5168 40.5063 51.0233C41.6424 53.3469 44.109 53.3469 46.9504 53.3469H54.3016V60.6838H42.5523Z" fill="white"/>
</svg>
