<svg width="45" height="31" viewBox="0 0 45 31" fill="none" xmlns="http://www.w3.org/2000/svg">
<path d="M0.273438 5.08887C0.273438 2.32744 2.51201 0.0888672 5.27344 0.0888672H39.2734C42.0349 0.0888672 44.2734 2.32744 44.2734 5.08887V25.0889C44.2734 27.8503 42.0349 30.0889 39.2734 30.0889H5.27344C2.51201 30.0889 0.273438 27.8503 0.273438 25.0889V5.08887Z" fill="#005FF9"/>
<g clip-path="url(#clip0)">
<path d="M22.7816 5.12695C16.9502 5.12695 12.2058 9.87134 12.2058 15.7028C12.2058 21.5342 16.9502 26.2786 22.7816 26.2786C24.6413 26.2786 26.47 25.7893 28.0708 24.863L26.7476 22.5741C25.5482 23.268 24.1765 23.6346 22.7816 23.6346C18.4078 23.6346 14.8498 20.0766 14.8498 15.7028C14.8498 11.3289 18.4078 7.77089 22.7816 7.77089C27.1555 7.77089 30.7135 11.3289 30.7135 15.7028V16.8543C30.7135 17.7193 30.1577 18.3467 29.3915 18.3467C28.6627 18.3467 28.0695 17.7535 28.0695 17.0247V11.7368H26.2421C25.3121 10.9244 24.1106 10.4148 22.7816 10.4148C19.8659 10.4148 17.4937 12.787 17.4937 15.7028C17.4937 18.6185 19.8659 20.9907 22.7816 20.9907C24.1701 20.9907 25.4254 20.4416 26.3699 19.5632C27.098 20.4284 28.1748 20.9907 29.3915 20.9907C31.6152 20.9907 33.3574 19.1736 33.3574 16.8543V15.7028C33.3574 9.87134 28.613 5.12695 22.7816 5.12695V5.12695ZM22.7816 18.3467C21.3234 18.3467 20.1377 17.1609 20.1377 15.7028C20.1377 14.2446 21.3235 13.0588 22.7816 13.0588C24.2398 13.0588 25.4256 14.2446 25.4256 15.7028C25.4256 17.161 24.2398 18.3467 22.7816 18.3467Z" fill="white"/>
</g>
<defs>
<clipPath id="clip0">
<rect width="21.1516" height="21.1516" fill="white" transform="translate(12.2058 5.12695)"/>
</clipPath>
</defs>
</svg>
