<svg width="25" height="24" viewBox="0 0 25 24" fill="none" xmlns="http://www.w3.org/2000/svg">
<path opacity="0.4" d="M4.26863 11.3412H12.7466C13.1388 11.3412 13.4572 11.6595 13.4572 12.0517C13.4572 12.4439 13.1388 12.7622 12.7466 12.7622H4.26863C3.87642 12.7622 3.55811 12.4439 3.55811 12.0517C3.55811 11.6595 3.87642 11.3412 4.26863 11.3412Z" fill="#009136"/>
<mask id="mask0" mask-type="alpha" maskUnits="userSpaceOnUse" x="12" y="6" width="9" height="12">
<path fill-rule="evenodd" clip-rule="evenodd" d="M12.0361 17.5V6.6036H20.9756V17.5H12.0361Z" fill="white"/>
</mask>
<g mask="url(#mask0)">
<path d="M12.7467 6.60332C12.8793 6.60332 13.01 6.64027 13.1256 6.71227L20.6439 11.4501C20.8504 11.5808 20.9764 11.8072 20.9764 12.0516C20.9764 12.2961 20.8504 12.5225 20.6439 12.6532L13.1256 17.391C12.9068 17.5284 12.6301 17.5369 12.4037 17.4109C12.1763 17.2858 12.0361 17.0481 12.0361 16.7894V7.31384C12.0361 7.05521 12.1763 6.81742 12.4037 6.69237C12.5108 6.63269 12.6292 6.60332 12.7467 6.60332Z" fill="#009136"/>
</g>
</svg>
