<svg width="45" height="31" viewBox="0 0 45 31" fill="none" xmlns="http://www.w3.org/2000/svg">
<path d="M0.273682 5.08887C0.273682 2.32744 2.51226 0.0888672 5.27368 0.0888672H39.2737C42.0351 0.0888672 44.2737 2.32744 44.2737 5.08887V25.0889C44.2737 27.8503 42.0351 30.0889 39.2737 30.0889H5.27368C2.51226 30.0889 0.273682 27.8503 0.273682 25.0889V5.08887Z" fill="#ED812B"/>
<g clip-path="url(#clip0)">
<path d="M16.3669 16.4795C15.8266 17.5415 16.44 18.0491 17.8396 18.9163C19.0293 19.6514 20.673 19.9202 21.7288 20.0277C21.2961 20.4437 23.279 18.5365 17.5681 24.0297C16.3572 25.1904 18.3066 27.0527 19.5167 25.9166L22.7926 22.7571C24.0467 23.9636 25.2488 25.1199 26.0684 25.921C27.2793 27.0615 29.2279 25.2151 28.0302 24.0341C27.9403 23.9487 23.591 19.7765 23.8563 20.0321C24.9253 19.9246 26.5443 19.6399 27.72 18.9207L27.7191 18.9199C29.1186 18.0482 29.732 17.5415 29.1997 16.4795C28.878 15.8767 28.0108 15.3726 26.8563 16.2442C26.8563 16.2442 25.2973 17.4384 22.7829 17.4384C20.2676 17.4384 18.7094 16.2442 18.7094 16.2442C17.5558 15.3682 16.685 15.8767 16.3669 16.4795Z" fill="white"/>
<path d="M22.7814 15.8279C25.8467 15.8279 28.3496 13.4325 28.3496 10.4836C28.3496 7.52237 25.8467 5.12695 22.7814 5.12695C19.7153 5.12695 17.2124 7.52237 17.2124 10.4836C17.2124 13.4325 19.7153 15.8279 22.7814 15.8279ZM22.7814 7.84053C24.2876 7.84053 25.5162 9.02238 25.5162 10.4836C25.5162 11.9325 24.2876 13.1143 22.7814 13.1143C21.2753 13.1143 20.0467 11.9325 20.0467 10.4836C20.0458 9.02149 21.2744 7.84053 22.7814 7.84053Z" fill="white"/>
</g>
<defs>
<clipPath id="clip0">
<rect width="21.1516" height="21.1516" fill="white" transform="translate(12.2061 5.12695)"/>
</clipPath>
</defs>
</svg>
