<svg width="49" height="37" viewBox="0 0 49 37" fill="none" xmlns="http://www.w3.org/2000/svg">
<path d="M47.9151 8.91408L47.913 8.89231C47.8727 8.50952 47.4718 5.10436 45.8165 3.37293C43.9033 1.336 41.7343 1.08855 40.6912 0.969905C40.6048 0.959746 40.5257 0.951038 40.455 0.941604L40.3719 0.932896C34.0848 0.47573 24.5899 0.413323 24.4948 0.412598H24.4781C24.3831 0.413323 14.8881 0.47573 8.54442 0.932896L8.4606 0.941604C8.39312 0.950675 8.31874 0.95902 8.23783 0.968454C7.20666 1.08746 5.06088 1.33528 3.14224 3.4455C1.56574 5.15915 1.11002 8.49102 1.06322 8.86546L1.05778 8.91408C1.04363 9.07336 0.708008 12.8653 0.708008 16.6721V20.2308C0.708008 24.0376 1.04363 27.8295 1.05778 27.9888L1.06032 28.0131C1.10059 28.3894 1.50116 31.7318 3.14877 33.4643C4.94768 35.4334 7.22226 35.6935 8.44573 35.8336C8.63912 35.8557 8.80602 35.8749 8.91922 35.8949L9.02916 35.9097C12.6593 36.2555 24.0409 36.4257 24.5235 36.4326L24.538 36.4329L24.5521 36.4326C24.6476 36.4322 34.1421 36.3698 40.4292 35.9123L40.5123 35.9039C40.5914 35.8934 40.6807 35.884 40.7786 35.8738C41.8044 35.765 43.9382 35.5389 45.8307 33.4574C47.4072 31.7437 47.8629 28.4119 47.9097 28.0374L47.9151 27.9888C47.9293 27.8295 48.2649 24.0376 48.2649 20.2308V16.6721C48.2649 12.8653 47.9293 9.07372 47.9151 8.91408V8.91408ZM31.7942 19.688L21.2877 25.3376C20.9993 25.4929 20.6858 25.5702 20.3731 25.5702C20.0316 25.5702 19.6909 25.478 19.3836 25.2948C18.7951 24.9428 18.4439 24.3235 18.4439 23.6381V12.2394C18.4439 11.5508 18.7973 10.9303 19.3894 10.5791C19.9816 10.2282 20.696 10.2155 21.3001 10.5461L31.8066 16.2951C32.4281 16.6351 32.8127 17.2868 32.8102 17.9954C32.8076 18.7036 32.4183 19.3523 31.7942 19.688V19.688Z" fill="white"/>
</svg>
