<svg width="21" height="22" viewBox="0 0 21 22" fill="none" xmlns="http://www.w3.org/2000/svg">
<path d="M19.4737 16.7857L16.1677 13.4797C16.7688 12.2775 17.1695 10.875 17.1695 9.47244C17.1695 4.76392 13.3626 0.957031 8.65409 0.957031C3.94556 0.957031 0.138672 4.76392 0.138672 9.47244C0.138672 14.181 3.94556 17.9879 8.65409 17.9879C10.0566 17.9879 11.4592 17.5871 12.6613 16.986L15.9673 20.292C16.9691 21.2938 18.4719 21.2938 19.4737 20.292C20.3753 19.2902 20.3753 17.7875 19.4737 16.7857ZM8.65409 15.9842C5.04756 15.9842 2.1423 13.079 2.1423 9.47244C2.1423 5.86592 5.04756 2.96066 8.65409 2.96066C12.2606 2.96066 15.1659 5.86592 15.1659 9.47244C15.1659 13.079 12.2606 15.9842 8.65409 15.9842Z" fill="#909098"/>
</svg>
