<svg width="21" height="21" viewBox="0 0 21 21" fill="none" xmlns="http://www.w3.org/2000/svg">
<path d="M19.335 15.8287L16.029 12.5227C16.6301 11.3205 17.0308 9.91795 17.0308 8.51541C17.0308 3.80689 13.2239 0 8.51541 0C3.80689 0 0 3.80689 0 8.51541C0 13.2239 3.80689 17.0308 8.51541 17.0308C9.91795 17.0308 11.3205 16.6301 12.5227 16.029L15.8287 19.335C16.8305 20.3368 18.3332 20.3368 19.335 19.335C20.2366 18.3332 20.2366 16.8305 19.335 15.8287ZM8.51541 15.0272C4.90888 15.0272 2.00363 12.1219 2.00363 8.51541C2.00363 4.90889 4.90888 2.00363 8.51541 2.00363C12.1219 2.00363 15.0272 4.90889 15.0272 8.51541C15.0272 12.1219 12.1219 15.0272 8.51541 15.0272Z" fill="white"/>
</svg>
