<svg width="17" height="17" viewBox="0 0 17 17" fill="none" xmlns="http://www.w3.org/2000/svg">
<g clip-path="url(#clip0)">
<path d="M15.5617 2.75059C15.5617 3.98499 14.5612 4.98569 13.3268 4.98569C12.0924 4.98569 11.0918 3.98499 11.0918 2.75059C11.0918 1.51632 12.0924 0.515625 13.3268 0.515625C14.5612 0.515625 15.5617 1.51632 15.5617 2.75059V2.75059Z" fill="white"/>
<path d="M13.3269 5.5016C11.8098 5.5016 10.5762 4.26783 10.5762 2.75074C10.5762 1.23377 11.8098 0 13.3269 0C14.844 0 16.0777 1.23377 16.0777 2.75074C16.0777 4.26783 14.844 5.5016 13.3269 5.5016ZM13.3269 1.03154C12.3786 1.03154 11.6077 1.80319 11.6077 2.75074C11.6077 3.69842 12.3786 4.47006 13.3269 4.47006C14.2752 4.47006 15.0461 3.69842 15.0461 2.75074C15.0461 1.80319 14.2752 1.03154 13.3269 1.03154Z" fill="white"/>
<path d="M15.5617 13.7536C15.5617 14.9879 14.5612 15.9886 13.3268 15.9886C12.0924 15.9886 11.0918 14.9879 11.0918 13.7536C11.0918 12.5192 12.0924 11.5186 13.3268 11.5186C14.5612 11.5186 15.5617 12.5192 15.5617 13.7536V13.7536Z" fill="white"/>
<path d="M13.3269 16.5045C11.8098 16.5045 10.5762 15.2708 10.5762 13.7538C10.5762 12.2367 11.8098 11.0029 13.3269 11.0029C14.844 11.0029 16.0777 12.2367 16.0777 13.7538C16.0777 15.2708 14.844 16.5045 13.3269 16.5045ZM13.3269 12.0345C12.3786 12.0345 11.6077 12.8061 11.6077 13.7538C11.6077 14.7013 12.3786 15.473 13.3269 15.473C14.2752 15.473 15.0461 14.7013 15.0461 13.7538C15.0461 12.8061 14.2752 12.0345 13.3269 12.0345V12.0345Z" fill="white"/>
<path d="M5.9349 8.25206C5.9349 9.48646 4.93421 10.487 3.69981 10.487C2.46554 10.487 1.46484 9.48646 1.46484 8.25206C1.46484 7.01766 2.46554 6.01709 3.69981 6.01709C4.93421 6.01709 5.9349 7.01766 5.9349 8.25206Z" fill="white"/>
<path d="M3.69996 11.0029C2.18299 11.0029 0.949219 9.7693 0.949219 8.2522C0.949219 6.73511 2.18299 5.50146 3.69996 5.50146C5.21705 5.50146 6.45082 6.73511 6.45082 8.2522C6.45082 9.7693 5.21705 11.0029 3.69996 11.0029ZM3.69996 6.53301C2.75165 6.53301 1.98076 7.30452 1.98076 8.2522C1.98076 9.19988 2.75165 9.9714 3.69996 9.9714C4.64839 9.9714 5.41928 9.19988 5.41928 8.2522C5.41928 7.30452 4.64839 6.53301 3.69996 6.53301Z" fill="white"/>
<path d="M5.32315 7.92237C5.08377 7.92237 4.85132 7.79784 4.72477 7.57508C4.53702 7.24568 4.65262 6.82548 4.98203 6.63698L11.3631 2.99913C11.6925 2.80999 12.1127 2.92559 12.3012 3.25626C12.4889 3.58566 12.3733 4.00586 12.0439 4.19437L5.66275 7.83221C5.55547 7.89341 5.43862 7.92237 5.32315 7.92237V7.92237Z" fill="white"/>
<path d="M11.7028 13.5956C11.5872 13.5956 11.4704 13.5666 11.3631 13.5054L4.98193 9.86757C4.65252 9.67982 4.53705 9.25962 4.7248 8.92946C4.91179 8.59942 5.33262 8.4832 5.66279 8.67233L12.0439 12.3102C12.3734 12.4979 12.4888 12.9181 12.3011 13.2483C12.1739 13.471 11.9414 13.5956 11.7028 13.5956V13.5956Z" fill="white"/>
</g>
<defs>
<clipPath id="clip0">
<rect width="16.5047" height="16.5047" fill="white" transform="translate(0.271484)"/>
</clipPath>
</defs>
</svg>
