<svg width="22" height="19" viewBox="0 0 22 19" fill="none" xmlns="http://www.w3.org/2000/svg">
<path d="M18.8726 5.20721C19.7268 4.6007 20.4453 3.84366 21.0308 2.97198V2.9711C20.2493 3.3133 19.4179 3.54085 18.5497 3.65112C19.4424 3.11813 20.1242 2.28058 20.4445 1.27149C19.6122 1.76772 18.6932 2.1178 17.7139 2.31384C16.9236 1.47191 15.7972 0.951172 14.5685 0.951172C12.1845 0.951172 10.2652 2.88621 10.2652 5.25797C10.2652 5.59929 10.2941 5.92748 10.3649 6.23993C6.78543 6.06489 3.61726 4.34952 1.4888 1.73534C1.11773 2.38035 0.898928 3.11813 0.898928 3.91193C0.898928 5.40325 1.66647 6.72478 2.81209 7.49057C2.11981 7.47744 1.44154 7.27615 0.866546 6.96021V7.00747C0.866546 9.10004 2.35874 10.8382 4.31653 11.239C3.96558 11.3353 3.584 11.3808 3.18754 11.3808C2.91186 11.3808 2.63355 11.365 2.37274 11.3073C2.93024 13.0121 4.51432 14.2663 6.39598 14.3074C4.93091 15.453 3.07027 16.1435 1.05646 16.1435C0.703762 16.1435 0.365064 16.1278 0.0263672 16.0849C1.93427 17.3145 4.19401 18.0173 6.63228 18.0173C14.2315 18.0173 19.1842 11.6775 18.8726 5.20721Z" fill="white"/>
</svg>
