<svg width="12" height="10" viewBox="0 0 12 10" fill="none" xmlns="http://www.w3.org/2000/svg">
<path d="M10.247 2.91036C10.6956 2.59178 11.0731 2.19413 11.3806 1.73627V1.73581C10.9701 1.91555 10.5334 2.03508 10.0773 2.093C10.5462 1.81304 10.9043 1.3731 11.0726 0.843057C10.6354 1.10371 10.1527 1.28759 9.63832 1.39057C9.2232 0.94833 8.63156 0.674805 7.98613 0.674805C6.73389 0.674805 5.72576 1.69122 5.72576 2.93702C5.72576 3.1163 5.74093 3.28869 5.77816 3.45281C3.89797 3.36087 2.23383 2.45984 1.11583 1.0867C0.92091 1.4255 0.805983 1.81304 0.805983 2.22999C0.805983 3.01333 1.20915 3.70749 1.8109 4.10973C1.44727 4.10283 1.091 3.9971 0.788974 3.83115V3.85597C0.788974 4.95513 1.57277 5.86811 2.60114 6.07865C2.41679 6.12922 2.21636 6.15312 2.00811 6.15312C1.86331 6.15312 1.71712 6.14485 1.58013 6.11451C1.87296 7.01002 2.70503 7.66877 3.6934 7.69038C2.92385 8.29214 1.94651 8.65484 0.88873 8.65484C0.703469 8.65484 0.525563 8.64657 0.347656 8.62404C1.34982 9.26993 2.53678 9.63908 3.81752 9.63908C7.80915 9.63908 10.4106 6.30896 10.247 2.91036Z" fill="#009136"/>
</svg>
