<svg width="45" height="31" viewBox="0 0 45 31" fill="none" xmlns="http://www.w3.org/2000/svg">
<path d="M0.273438 5.08887C0.273438 2.32744 2.51201 0.0888672 5.27344 0.0888672H39.2734C42.0349 0.0888672 44.2734 2.32744 44.2734 5.08887V25.0889C44.2734 27.8503 42.0349 30.0889 39.2734 30.0889H5.27344C2.51201 30.0889 0.273438 27.8503 0.273438 25.0889V5.08887Z" fill="#2787F5"/>
<path d="M36.0279 22.6335C35.9554 22.5121 35.507 21.5376 33.3489 19.5347C31.0897 17.4374 31.3932 17.7779 34.1144 14.1514C35.7717 11.9428 36.4342 10.594 36.2269 10.0174C36.0296 9.46782 34.8107 9.61281 34.8107 9.61281L30.7576 9.63642C30.7576 9.63642 30.4575 9.59595 30.2333 9.72914C30.0158 9.86065 29.8759 10.1641 29.8759 10.1641C29.8759 10.1641 29.2335 11.8737 28.377 13.327C26.5714 16.3938 25.8481 16.5556 25.553 16.3651C24.8669 15.9217 25.0388 14.5813 25.0388 13.6305C25.0388 10.6581 25.489 9.41893 24.1604 9.09859C23.7187 8.99238 23.395 8.92157 22.2671 8.90976C20.8205 8.89459 19.5948 8.91482 18.9019 9.2537C18.44 9.47962 18.0842 9.98372 18.3017 10.0124C18.5698 10.0478 19.1767 10.1759 19.4987 10.6143C19.9152 11.1791 19.9 12.4503 19.9 12.4503C19.9 12.4503 20.1394 15.9487 19.342 16.3836C18.794 16.6821 18.0438 16.0734 16.4337 13.2899C15.6092 11.8653 14.9854 10.2889 14.9854 10.2889C14.9854 10.2889 14.8657 9.99553 14.6516 9.83873C14.392 9.64822 14.0278 9.58752 14.0278 9.58752L10.1737 9.61113C10.1737 9.61113 9.5954 9.62799 9.38297 9.87919C9.19414 10.1034 9.36779 10.5654 9.36779 10.5654C9.36779 10.5654 12.3857 17.6245 15.8014 21.1836C18.9356 24.4459 22.493 24.2318 22.493 24.2318H24.1048C24.1048 24.2318 24.592 24.1779 24.8399 23.9098C25.0692 23.6636 25.0607 23.2017 25.0607 23.2017C25.0607 23.2017 25.0287 21.0386 26.0335 20.7199C27.0232 20.4064 28.2944 22.8105 29.6415 23.7361C30.6598 24.4358 31.4337 24.2824 31.4337 24.2824L35.0366 24.2318C35.0366 24.2318 36.9215 24.1155 36.0279 22.6335Z" fill="white"/>
</svg>
