<svg width="12" height="7" viewBox="0 0 12 7" fill="none" xmlns="http://www.w3.org/2000/svg">
<path d="M10.9363 5.52278C10.908 5.47548 10.7333 5.09576 9.8924 4.3153C9.01208 3.49806 9.13034 3.63076 10.1907 2.21766C10.8364 1.35705 11.0946 0.831492 11.0138 0.606815C10.937 0.392649 10.462 0.449146 10.462 0.449146L8.88267 0.458344C8.88267 0.458344 8.76573 0.442577 8.67835 0.494476C8.59361 0.545718 8.53908 0.663969 8.53908 0.663969C8.53908 0.663969 8.28878 1.33012 7.95505 1.89641C7.25146 3.0914 6.96962 3.15447 6.85466 3.08024C6.58728 2.90746 6.65429 2.38518 6.65429 2.01466C6.65429 0.856456 6.82969 0.373597 6.31202 0.248776C6.13989 0.207388 6.01376 0.179796 5.57426 0.175198C5.0106 0.169285 4.53299 0.177169 4.26299 0.309216C4.08298 0.397247 3.94436 0.593676 4.02911 0.604844C4.13357 0.61864 4.37007 0.668568 4.49555 0.839376C4.65781 1.05945 4.6519 1.5548 4.6519 1.5548C4.6519 1.5548 4.74519 2.91797 4.43445 3.08746C4.22094 3.20374 3.9286 2.96658 3.30121 1.88196C2.97996 1.32683 2.73689 0.712584 2.73689 0.712584C2.73689 0.712584 2.69024 0.598274 2.60681 0.537178C2.50564 0.462942 2.36374 0.439292 2.36374 0.439292L0.861949 0.448489C0.861949 0.448489 0.636615 0.455059 0.553839 0.552945C0.480261 0.640319 0.547927 0.820324 0.547927 0.820324C0.547927 0.820324 1.72387 3.57098 3.05485 4.9578C4.27612 6.229 5.66229 6.14557 5.66229 6.14557H6.29034C6.29034 6.14557 6.4802 6.12455 6.57677 6.02009C6.66611 5.92418 6.66283 5.74417 6.66283 5.74417C6.66283 5.74417 6.65035 4.90131 7.04189 4.77714C7.42752 4.65495 7.92286 5.59176 8.44776 5.95243C8.84456 6.22506 9.1461 6.16528 9.1461 6.16528L10.55 6.14557C10.55 6.14557 11.2845 6.10024 10.9363 5.52278Z" fill="#009136"/>
</svg>
