<svg width="21" height="13" viewBox="0 0 21 13" fill="none" xmlns="http://www.w3.org/2000/svg">
<path d="M19.8373 10.988C19.7835 10.898 19.4508 10.175 17.8499 8.68921C16.174 7.13334 16.3991 7.38598 18.4177 4.69572C19.6471 3.05731 20.1387 2.05675 19.9848 1.62901C19.8385 1.22128 18.9342 1.32884 18.9342 1.32884L15.9276 1.34635C15.9276 1.34635 15.7049 1.31633 15.5386 1.41514C15.3773 1.51269 15.2734 1.73782 15.2734 1.73782C15.2734 1.73782 14.7969 3.00603 14.1616 4.08413C12.8221 6.35916 12.2855 6.47922 12.0666 6.3379C11.5576 6.00896 11.6852 5.01465 11.6852 4.30926C11.6852 2.10427 12.0191 1.18501 11.0336 0.947373C10.7059 0.868579 10.4657 0.81605 9.62903 0.807295C8.55593 0.796039 7.64667 0.811047 7.13263 1.06244C6.78994 1.23003 6.52604 1.60399 6.68738 1.62525C6.88624 1.65152 7.3365 1.74657 7.57538 2.07175C7.8843 2.49074 7.87305 3.43377 7.87305 3.43377C7.87305 3.43377 8.05065 6.02897 7.45907 6.35165C7.05259 6.57303 6.49603 6.12152 5.30161 4.05662C4.69001 2.99977 4.22725 1.83037 4.22725 1.83037C4.22725 1.83037 4.13845 1.61275 3.97962 1.49643C3.78701 1.3551 3.51686 1.31008 3.51686 1.31008L0.657754 1.32759C0.657754 1.32759 0.228763 1.34009 0.071175 1.52645C-0.0689035 1.69279 0.0599187 2.03548 0.0599187 2.03548C0.0599187 2.03548 2.29867 7.27217 4.83259 9.9124C7.15765 12.3325 9.79663 12.1737 9.79663 12.1737H10.9923C10.9923 12.1737 11.3537 12.1336 11.5376 11.9348C11.7077 11.7522 11.7014 11.4095 11.7014 11.4095C11.7014 11.4095 11.6777 9.80484 12.4231 9.56846C13.1573 9.33583 14.1003 11.1193 15.0996 11.806C15.855 12.325 16.4291 12.2112 16.4291 12.2112L19.1018 12.1737C19.1018 12.1737 20.5001 12.0874 19.8373 10.988Z" fill="white"/>
</svg>
