<svg width="21" height="15" viewBox="0 0 21 15" fill="none" xmlns="http://www.w3.org/2000/svg">
<path d="M19.1764 2.17926C18.6336 1.21372 18.0445 1.03612 16.8451 0.96858C15.6469 0.887285 12.634 0.853516 10.0237 0.853516C7.40852 0.853516 4.39433 0.887285 3.19741 0.96733C2.00049 1.03612 1.41016 1.21247 0.86235 2.17926C0.303286 3.14355 0.015625 4.80448 0.015625 7.72862C0.015625 7.73112 0.015625 7.73237 0.015625 7.73237C0.015625 7.73487 0.015625 7.73612 0.015625 7.73612V7.73863C0.015625 10.6503 0.303286 12.3237 0.86235 13.278C1.41016 14.2435 1.99924 14.4186 3.19616 14.4999C4.39433 14.57 7.40852 14.6112 10.0237 14.6112C12.634 14.6112 15.6469 14.57 16.8463 14.5012C18.0457 14.4199 18.6348 14.2448 19.1776 13.2792C19.7417 12.3249 20.0268 10.6515 20.0268 7.73988C20.0268 7.73988 20.0268 7.73612 20.0268 7.73362V7.72987C20.0268 4.80448 19.7417 3.14355 19.1764 2.17926ZM7.51983 11.4845V3.98027L13.7733 7.73237L7.51983 11.4845Z" fill="white"/>
</svg>
