<svg width="11" height="8" viewBox="0 0 11 8" fill="none" xmlns="http://www.w3.org/2000/svg">
<path d="M10.4981 1.37117C10.213 0.864007 9.90355 0.77072 9.27353 0.735244C8.64417 0.692542 7.06158 0.674805 5.69052 0.674805C4.31683 0.674805 2.73358 0.692542 2.10488 0.734587C1.47618 0.77072 1.16609 0.86335 0.87835 1.37117C0.584693 1.87768 0.433594 2.75011 0.433594 4.28607C0.433594 4.28738 0.433594 4.28804 0.433594 4.28804C0.433594 4.28935 0.433594 4.29001 0.433594 4.29001V4.29132C0.433594 5.8207 0.584693 6.6997 0.87835 7.20096C1.16609 7.70812 1.47552 7.8001 2.10422 7.8428C2.73358 7.87959 4.31683 7.90127 5.69052 7.90127C7.06158 7.90127 8.64417 7.87959 9.27419 7.84346C9.9042 7.80076 10.2136 7.70878 10.4987 7.20162C10.795 6.70036 10.9448 5.82136 10.9448 4.29198C10.9448 4.29198 10.9448 4.29001 10.9448 4.28869V4.28672C10.9448 2.75011 10.795 1.87768 10.4981 1.37117ZM4.3753 6.25889V2.31718L7.66006 4.28804L4.3753 6.25889Z" fill="#009136"/>
</svg>
